[FRAME]
media_type=video
key_frame=1
pkt_pts=N/A
pkt_pts_time=N/A
pkt_dts=N/A
pkt_dts_time=N/A
pkt_duration=N/A
pkt_duration_time=N/A
pkt_pos=N/A
pkt_size=15760
width=263
height=263
pix_fmt=yuvj420p
sample_aspect_ratio=1:1
pict_type=I
coded_picture_number=0
display_picture_number=0
interlaced_frame=0
top_field_first=0
repeat_pict=0
TAG:UserComment=AppleMark

[/FRAME]
[FRAME]
media_type=audio
key_frame=1
pkt_pts=353600
pkt_pts_time=0.025057
pkt_dts=353600
pkt_dts_time=0.025057
pkt_duration=15040
pkt_duration_time=0.001066
pkt_pos=16292
pkt_size=417
sample_fmt=s16p
nb_samples=47
channels=2
channel_layout=stereo
[/FRAME]
[FRAME]
media_type=audio
key_frame=1
pkt_pts=368640
pkt_pts_time=0.026122
pkt_dts=368640
pkt_dts_time=0.026122
pkt_duration=368640
pkt_duration_time=0.026122
pkt_pos=16709
pkt_size=418
sample_fmt=s16p
nb_samples=1152
channels=2
channel_layout=stereo
[/FRAME]
[FRAME]
media_type=audio
key_frame=1
pkt_pts=737280
pkt_pts_time=0.052245
pkt_dts=737280
pkt_dts_time=0.052245
pkt_duration=368640
pkt_duration_time=0.026122
pkt_pos=17127
pkt_size=418
sample_fmt=s16p
nb_samples=1152
channels=2
channel_layout=stereo
[/FRAME]
[FRAME]
media_type=audio
key_frame=1
pkt_pts=1105920
pkt_pts_time=0.078367
pkt_dts=1105920
pkt_dts_time=0.078367
pkt_duration=368640
pkt_duration_time=0.026122
pkt_pos=17545
pkt_size=418
sample_fmt=s16p
nb_samples=1152
channels=2
channel_layout=stereo
[/FRAME]
[FRAME]
media_type=audio
key_frame=1
pkt_pts=1474560
pkt_pts_time=0.104490
pkt_dts=1474560
pkt_dts_time=0.104490
pkt_duration=368640
pkt_duration_time=0.026122
pkt_pos=17963
pkt_size=418
sample_fmt=s16p
nb_samples=1152
channels=2
channel_layout=stereo
[/FRAME]
[FRAME]
media_type=audio
key_frame=1
pkt_pts=1843200
pkt_pts_time=0.130612
pkt_dts=1843200
pkt_dts_time=0.130612
pkt_duration=368640
pkt_duration_time=0.026122
pkt_pos=18381
pkt_size=418
sample_fmt=s16p
nb_samples=1152
channels=2
channel_layout=stereo
[/FRAME]
[FRAME]
media_type=audio
key_frame=1
pkt_pts=2211840
pkt_pts_time=0.156735
pkt_dts=2211840
pkt_dts_time=0.156735
pkt_duration=368640
pkt_duration_time=0.026122
pkt_pos=18799
pkt_size=418
sample_fmt=s16p
nb_samples=1152
channels=2
channel_layout=stereo
[/FRAME]
[FRAME]
media_type=audio
key_frame=1
pkt_pts=2580480
pkt_pts_time=0.182857
pkt_dts=2580480
pkt_dts_time=0.182857
pkt_duration=368640
pkt_duration_time=0.026122
pkt_pos=19217
pkt_size=418
sample_fmt=s16p
nb_samples=1152
channels=2
channel_layout=stereo
[/FRAME]
[FRAME]
media_type=audio
key_frame=1
pkt_pts=2949120
pkt_pts_time=0.208980
pkt_dts=2949120
pkt_dts_time=0.208980
pkt_duration=368640
pkt_duration_time=0.026122
pkt_pos=19635
pkt_size=418
sample_fmt=s16p
nb_samples=1152
channels=2
channel_layout=stereo
[/FRAME]
[FRAME]
media_type=audio
key_frame=1
pkt_pts=3317760
pkt_pts_time=0.235102
pkt_dts=3317760
pkt_dts_time=0.235102
pkt_duration=368640
pkt_duration_time=0.026122
pkt_pos=20053
pkt_size=418
sample_fmt=s16p
nb_samples=1152
channels=2
channel_layout=stereo
[/FRAME]
[FRAME]
media_type=audio
key_frame=1
pkt_pts=3686400
pkt_pts_time=0.261224
pkt_dts=3686400
pkt_dts_time=0.261224
pkt_duration=368640
pkt_duration_time=0.026122
pkt_pos=20471
pkt_size=418
sample_fmt=s16p
nb_samples=1152
channels=2
channel_layout=stereo
[/FRAME]
[FRAME]
media_type=audio
key_frame=1
pkt_pts=4055040
pkt_pts_time=0.287347
pkt_dts=4055040
pkt_dts_time=0.287347
pkt_duration=368640
pkt_duration_time=0.026122
pkt_pos=20889
pkt_size=418
sample_fmt=s16p
nb_samples=1152
channels=2
channel_layout=stereo
[/FRAME]
[FRAME]
media_type=audio
key_frame=1
pkt_pts=4423680
pkt_pts_time=0.313469
pkt_dts=4423680
pkt_dts_time=0.313469
pkt_duration=368640
pkt_duration_time=0.026122
pkt_pos=21307
pkt_size=418
sample_fmt=s16p
nb_samples=1152
channels=2
channel_layout=stereo
[/FRAME]
[FRAME]
media_type=audio
key_frame=1
pkt_pts=4792320
pkt_pts_time=0.339592
pkt_dts=4792320
pkt_dts_time=0.339592
pkt_duration=368640
pkt_duration_time=0.026122
pkt_pos=21725
pkt_size=418
sample_fmt=s16p
nb_samples=1152
channels=2
channel_layout=stereo
[/FRAME]
[FRAME]
media_type=audio
key_frame=1
pkt_pts=5160960
pkt_pts_time=0.365714
pkt_dts=5160960
pkt_dts_time=0.365714
pkt_duration=368640
pkt_duration_time=0.026122
pkt_pos=22143
pkt_size=418
sample_fmt=s16p
nb_samples=1152
channels=2
channel_layout=stereo
[/FRAME]
[FRAME]
media_type=audio
key_frame=1
pkt_pts=5529600
pkt_pts_time=0.391837
pkt_dts=5529600
pkt_dts_time=0.391837
pkt_duration=368640
pkt_duration_time=0.026122
pkt_pos=22561
pkt_size=418
sample_fmt=s16p
nb_samples=1152
channels=2
channel_layout=stereo
[/FRAME]
[FRAME]
media_type=audio
key_frame=1
pkt_pts=5898240
pkt_pts_time=0.417959
pkt_dts=5898240
pkt_dts_time=0.417959
pkt_duration=368640
pkt_duration_time=0.026122
pkt_pos=22979
pkt_size=418
sample_fmt=s16p
nb_samples=1152
channels=2
channel_layout=stereo
[/FRAME]
[FRAME]
media_type=audio
key_frame=1
pkt_pts=6266880
pkt_pts_time=0.444082
pkt_dts=6266880
pkt_dts_time=0.444082
pkt_duration=368640
pkt_duration_time=0.026122
pkt_pos=23397
pkt_size=418
sample_fmt=s16p
nb_samples=1152
channels=2
channel_layout=stereo
[/FRAME]
[FRAME]
media_type=audio
key_frame=1
pkt_pts=6635520
pkt_pts_time=0.470204
pkt_dts=6635520
pkt_dts_time=0.470204
pkt_duration=368640
pkt_duration_time=0.026122
pkt_pos=23815
pkt_size=418
sample_fmt=s16p
nb_samples=1152
channels=2
channel_layout=stereo
[/FRAME]
[FRAME]
media_type=audio
key_frame=1
pkt_pts=7004160
pkt_pts_time=0.496327
pkt_dts=7004160
pkt_dts_time=0.496327
pkt_duration=368640
pkt_duration_time=0.026122
pkt_pos=24233
pkt_size=418
sample_fmt=s16p
nb_samples=1152
channels=2
channel_layout=stereo
[/FRAME]
[FRAME]
media_type=audio
key_frame=1
pkt_pts=7372800
pkt_pts_time=0.522449
pkt_dts=7372800
pkt_dts_time=0.522449
pkt_duration=368640
pkt_duration_time=0.026122
pkt_pos=24651
pkt_size=418
sample_fmt=s16p
nb_samples=1152
channels=2
channel_layout=stereo
[/FRAME]
